#!OML:ASF H:\Punching\Project 1\Capture day 1\Session 1\female.ASF
:FULLY-SPECIFIED
:DEGREES
1829
root 1.24955 15.389 2.67286 -25.6974 27.4821 -9.9659
lowerback 7.38514 -1.75823 -1.72619
upperback 1.85662 -2.19372 8.61587
thorax -1.79671 -1.07519 10.339
lowerneck -5.23207 -4.1224 3.52299
upperneck 46.9047 -4.12686 -5.88209
head 18.2704 -1.45645 -3.99452
rclavicle 2.8625e-014 -8.5875e-014
rhumerus -15.5106 2.20732 -57.9126
rradius 130.776
rwrist -11.6732
rhand -32.4955 11.0427
rfingers 7.12502
rthumb -5.72713 -18.8599
lclavicle 2.8625e-014 -8.5875e-014
lhumerus 3.19026 -34.8539 80.9259
lradius 131.939
lwrist -4.66929
lhand -29.1453 1.74494
lfingers 7.12502
lthumb -2.49202 31.7101
rfemur -106.839 -8.78312 24.6306
rtibia 117.969
rfoot 4.61456 4.30293
rtoes -27.225
lfemur 12.6853 -19.247 -27.6677
ltibia 26.1053
lfoot -10.7876 2.82399
ltoes 13.8918
1830
root 1.24778 15.4166 2.73951 -26.4495 27.8344 -10.3926
lowerback 7.51775 -1.81826 -1.77207
upperback 1.94625 -2.27464 8.71911
thorax -1.75436 -1.1192 10.4939
lowerneck -5.04577 -4.27465 3.56103
upperneck 47.1615 -4.42248 -5.7333
head 18.3686 -1.53382 -3.98045
rclavicle 5.92378e-014 -2.38542e-014
rhumerus -16.1096 2.09193 -58.2382
rradius 130.787
rwrist -11.3394
rhand -32.5144 11.1879
rfingers 7.12502
rthumb -5.74541 -18.7142
lclavicle 5.92378e-014 -2.38542e-014
lhumerus 3.21405 -35.2406 81.4073
lradius 131.605
lwrist -4.67132
lhand -28.9156 1.97675
lfingers 7.12502
lthumb -2.2702 31.9444
rfemur -107.977 -8.36652 24.068
rtibia 114.401
rfoot 5.94626 3.2066
rtoes -26.7503
lfemur 14.0741 -19.3344 -27.5065
ltibia 25.0053
lfoot -10.5249 2.57701
ltoes 13.8981
1831
root 1.24863 15.4449 2.79902 -27.0866 28.1335 -10.8027
lowerback 7.6066 -1.87383 -1.74002
upperback 1.98747 -2.34219 8.80886
thorax -1.7446 -1.15406 10.5853
lowerneck -4.85759 -4.41954 3.5898
upperneck 47.4309 -4.70408 -5.58643
head 18.4784 -1.60612 -3.96406
rclavicle 5.40694e-014 -9.54166e-015
rhumerus -16.7099 2.02685 -58.5946
rradius 130.795
rwrist -11.0691
rhand -32.5354 11.3498
rfingers 7.12502
rthumb -5.7657 -18.5518
lclavicle 5.40694e-014 -9.54166e-015
lhumerus 3.14768 -35.5857 81.9283
lradius 131.293
lwrist -4.72752
lhand -28.6347 2.20542
lfingers 7.12502
lthumb -1.99891 32.1758
rfemur -108.789 -8.01482 23.4078
rtibia 110.378
rfoot 7.406 2.08729
rtoes -26.2921
lfemur 15.3348 -19.4551 -27.3388
ltibia 23.8842
lfoot -10.2131 2.37139
ltoes 13.8902
1832
root 1.2519 15.472 2.85079 -27.6057 28.3747 -11.1834
lowerback 7.65671 -1.92796 -1.64725
upperback 1.99889 -2.40236 8.8938
thorax -1.74879 -1.18384 10.6331
lowerneck -4.69877 -4.54888 3.60148
upperneck 47.6973 -4.95681 -5.44855
head 18.5995 -1.67062 -3.94583
rclavicle 1.82882e-014 -3.18055e-014
rhumerus -17.2651 2.01573 -58.9664
rradius 130.797
rwrist -10.8923
rhand -32.562 11.5392
rfingers 7.12502
rthumb -5.7913 -18.3617
lclavicle 1.82882e-014 -3.18055e-014
lhumerus 3.00466 -35.8671 82.4787
lradius 131.013
lwrist -4.82986
lhand -28.3141 2.43777
lfingers 7.12502
lthumb -1.68925 32.4108
rfemur -109.285 -7.72094 22.6691
rtibia 105.911
rfoot 9.00502 1.07518
rtoes -26.2037
lfemur 16.451 -19.5933 -27.1715
ltibia 22.7784
lfoot -9.8694 2.20543
ltoes 13.8996
1833
root 1.25697 15.4969 2.89508 -28.0121 28.5538 -11.5223
lowerback 7.67534 -1.9747 -1.5077
upperback 1.98939 -2.44862 8.97311
thorax -1.76257 -1.20564 10.6444
lowerneck -4.57632 -4.6627 3.59753
upperneck 47.9579 -5.183 -5.31657
head 18.7316 -1.72778 -3.92517
rclavicle 2.38542e-014 -1.27222e-014
rhumerus -17.7666 2.04851 -59.3394
rradius 130.792
rwrist -10.8167
rhand -32.594 11.7306
rfingers 7.12502
rthumb -5.82224 -18.1694
lclavicle 2.38542e-014 -1.27222e-014
lhumerus 2.7857 -36.1005 83.047
lradius 130.782
lwrist -4.95865
lhand -27.9866 2.65932
lfingers 7.12502
lthumb -1.37299 32.6347
rfemur -109.473 -7.47038 21.8646
rtibia 101.012
rfoot 10.6702 0.169462
rtoes -26.2958
lfemur 17.423 -19.7243 -27.0103
ltibia 21.7099
lfoot -9.50783 2.09055
ltoes 13.936
1834
root 1.26329 15.5184 2.93165 -28.3487 28.6581 -11.8018
lowerback 7.7207 -2.00289 -1.33137
upperback 1.97674 -2.46581 9.04159
thorax -1.80255 -1.21168 10.6206
lowerneck -4.48873 -4.76464 3.58597
upperneck 48.2075 -5.39149 -5.18798
head 18.8699 -1.77987 -3.90318
rclavicle -1.90833e-014 6.36111e-014
rhumerus -18.2064 2.11193 -59.7051
rradius 130.776
rwrist -10.8344
rhand -32.6297 11.9181
rfingers 7.12502
rthumb -5.85673 -17.9809
lclavicle -1.90833e-014 6.36111e-014
lhumerus 2.50473 -36.3038 83.614
lradius 130.601
lwrist -5.07754
lhand -27.6783 2.83737
lfingers 7.12502
lthumb -1.07521 32.8144
rfemur -109.316 -7.23992 20.9966
rtibia 95.6976
rfoot 12.2723 -0.521016
rtoes -26.6526
lfemur 18.3146 -19.8002 -26.8757
ltibia 20.6565
lfoot -9.11768 2.03294
ltoes 14.0052
1835
root 1.26901 15.537 2.96243 -28.6284 28.6927 -11.9983
lowerback 7.80024 -2.00542 -1.17206
upperback 1.97396 -2.44945 9.09584
thorax -1.85762 -1.20059 10.5899
lowerneck -4.43367 -4.85553 3.57565
upperneck 48.4428 -5.58701 -5.05915
head 19.0108 -1.82701 -3.88004
rclavicle -5.88403e-014 -3.33958e-014
rhumerus -18.592 2.19051 -60.0656
rradius 130.745
rwrist -10.9185
rhand -32.6575 12.0933
rfingers 7.12502
rthumb -5.88351 -17.8051
lclavicle -5.88403e-014 -3.33958e-014
lhumerus 2.17631 -36.4976 84.1635
lradius 130.472
lwrist -5.15983
lhand -27.4081 2.95203
lfingers 7.12502
lthumb -0.814245 32.9302
rfemur -108.816 -7.00418 20.0397
rtibia 90.0023
rfoot 13.688 -0.952449
rtoes -27.2103
lfemur 19.1839 -19.7781 -26.7768
ltibia 19.5593
lfoot -8.68556 2.02456
ltoes 14.126
